/* XPM */
static char *xpm_[] = {
/* columns rows colors chars-per-pixel */
"32 32 167 2 ",
"   c #0E4122",
".  c #1C4A2E",
"X  c #114833",
"o  c #1D4A32",
"O  c #1C4E3A",
"+  c #1F5136",
"@  c #20472C",
"#  c #214737",
"$  c #224D33",
"%  c #234D3A",
"&  c #284E3D",
"*  c #245336",
"=  c #2A5336",
"-  c #255837",
";  c #25543C",
":  c #2A543C",
">  c #255A3C",
",  c #2B5B3D",
"<  c #325C3E",
"1  c #2C623F",
"2  c #1C5743",
"3  c #274D40",
"4  c #294E41",
"5  c #255541",
"6  c #2C5642",
"7  c #235A41",
"8  c #2D5B43",
"9  c #27554A",
"0  c #2E5749",
"q  c #265B49",
"w  c #2D5C4A",
"e  c #315645",
"r  c #325C44",
"t  c #395E45",
"y  c #315549",
"u  c #335D4A",
"i  c #385C4B",
"p  c #345E52",
"a  c #395F50",
"s  c #246047",
"d  c #2C6343",
"f  c #2D6A42",
"g  c #2D634B",
"h  c #2E6A4D",
"j  c #336345",
"k  c #396546",
"l  c #316945",
"z  c #3A6B47",
"x  c #34634B",
"c  c #3A644C",
"v  c #346B4B",
"b  c #3B6A4D",
"n  c #35734D",
"m  c #3B714E",
"M  c #2B6950",
"N  c #356451",
"B  c #3B6552",
"V  c #356B52",
"C  c #3C6B53",
"Z  c #306B59",
"A  c #3D6F5A",
"S  c #367252",
"D  c #3C7252",
"F  c #317850",
"G  c #3D7A53",
"H  c #3D755B",
"J  c #3C7959",
"K  c #357461",
"L  c #3D7260",
"P  c #3B7D71",
"I  c #416A4D",
"U  c #42744E",
"Y  c #406654",
"T  c #426C54",
"R  c #436C59",
"E  c #437354",
"W  c #427A56",
"Q  c #4B7957",
"!  c #437359",
"~  c #457158",
"^  c #457359",
"/  c #46725B",
"(  c #427759",
")  c #42745B",
"_  c #42765F",
"`  c #44745C",
"'  c #43725A",
"]  c #487659",
"[  c #49765F",
"{  c #4B765B",
"}  c #43785C",
"|  c #46785D",
" . c #437B5C",
".. c #48795B",
"X. c #4B7C5D",
"o. c #507D5E",
"O. c #456B60",
"+. c #427763",
"@. c #447461",
"#. c #4B7760",
"$. c #4C7265",
"%. c #4B7665",
"&. c #4C7765",
"*. c #457963",
"=. c #477D65",
"-. c #437B62",
";. c #4A7F63",
":. c #4B7C63",
">. c #467968",
",. c #4D7E68",
"<. c #507065",
"1. c #567E63",
"2. c #507E64",
"3. c #537C62",
"4. c #3F815C",
"5. c #398070",
"6. c #46875F",
"7. c #46845D",
"8. c #4A845C",
"9. c #42895D",
"0. c #44895D",
"q. c #43885C",
"w. c #54875E",
"e. c #468363",
"r. c #488563",
"t. c #498664",
"y. c #4A8563",
"u. c #4C8B65",
"i. c #44826D",
"p. c #4B876E",
"a. c #4B816C",
"s. c #498E69",
"d. c #538165",
"f. c #518265",
"g. c #518167",
"h. c #558366",
"j. c #538467",
"k. c #508364",
"l. c #588163",
"z. c #518B63",
"x. c #5A8A62",
"c. c #5D8D63",
"v. c #5E8C67",
"b. c #578568",
"n. c #52836E",
"m. c #54826C",
"M. c #548D6C",
"N. c #5C8D6C",
"B. c #49966B",
"V. c #46986A",
"C. c #50916E",
"Z. c #458672",
"A. c #498375",
"S. c #4E8572",
"D. c #43857B",
"F. c #418878",
"G. c #528572",
"H. c #598471",
"J. c #528D70",
"K. c #538C79",
"L. c #549371",
"P. c #599475",
"I. c #55927B",
"U. c #5F9178",
"Y. c #5E9F7E",
"T. c #609D7C",
"R. c #619684",
/* pixels */
"B B u w w w 4 4 e Y : c i e v H *.n.; , z C l v - x p g K M q q ",
"x u A ) V j % 4 ; % e t k r 8 w w x 8 #.~ g.l n d V N w Z p.+.q ",
"b ] b.j ( } ; R ] C b 2.8 d j h j % N %.H.&.: x g =.N w >.R.G.N ",
"j v k - v , x C D - C b b 8 f h v V w $.Y 8 $ = 8 g ; B 5 w N 5 ",
"d x 8 D C j x j x v v   + v f 6.9.e.y <.i 6 : < r , T x w V p 5 ",
"v D ; g.b.C 8 u ( D W 1 1 W m G 6.t.a y e e t c 1.: B B N C N 5 ",
"x l k ..h.g.8 ( e.D z U < b A D x j u y i B 6 T T b 5 V A T B 5 ",
", * j j x z b ` D D w.U c T V N 7 w 0 9 p u i = c ~ C x j C R 8 ",
"- C $ r v l x V C I c.c.b V 8 x 7 Z P D.D.g u 6 = / ` A u 6 u B ",
"6 w , T r.t.H C v , v.v.+ 8 d } q Z.F.5.K 9 0 # e 8 V x u o B 7 ",
"6 N 6 | s.s.7.g V , r { j E 7.r.h i.K M g A p 3 % c w u a 4 B 6 ",
"B j U.J.J 4.v q 5 5 , j $ < l v 7 g v g ,.C 0 O.% B T B <.Y 6 8 ",
"T d  .L.t.V x u O.V n f * ; $ e O 8 D b E c B 0 i T T c R j b v ",
"U - P.Y.M.v g x +.=.9.0.6 i B e e e X.N.N.J.m./ x B c i R r E z ",
"v d Y.R.L.d S V N s W W * e e i i r ;.( v v g L 6 i # i < , x k ",
"m n L.e.J H P.J + * d l r 3.T & B ; a.M.I.I.I.S.0 0 T T I j j v ",
"n f d g 5 V B q w j i ; 0 c r u Y N I.R.I.K.a.Z i T B C c , l l ",
"z l v b 7 8 B N ) B B B C C 5 N p 6 I.K 2 X O 5 ; ` :.X.k * d v ",
"1 - v 8 H q O.% @.#.H N p O V V V 7 2 w V R +.j d V h v v m 1 j ",
"W v W ;.L g >.6 R %.} -.+.w v V v 8 w B / ` x s d 7.B.B.6.n , x ",
"j k [ : ; u ,.u A %.-.L.H a.; r x O g A g C N n F B.V.V.L.C.b x ",
"c R i 6 x 6 8 8 x v D X.D ; , % j ; w a.R x > J F B.B.B.C.G b , ",
"i Y C % A x o.c D m k o : = : , : 8 8 r 0 7 e - h C.9.H > d j j ",
"i C w 8 b - k j l j * @ = $ j b x 1 * c ' T c x - 1 C o d x k x ",
"0 x w b - R ] < < = I T t = z b d m r T m b I E Q , 8 c j v y.- ",
"x w b ;.j 1.o.= k I $ < < , , E n l . Q ] U Q Q k I : r 7 - b ] ",
"v v C X.b o.T = c r k e x ] d l W 1 r r E X.X.z Q < b v w.8.1 j ",
"m j > G z Q U = j I c : u x d t.t.> $ i b X...l Q < I E 7.z.l , ",
"b 8 j y.G u.z.1 I r i i C 8 ( t.t.D ; C ' j v f j ; , j m E T : ",
"8 z { l 1 W z.1 j b R Y T c d v v > x ) m.v n m . c r c ( A * : ",
"C e I c k $ - : 8 w c t c < r c ] B w N C d n n r c % V A H 8 i ",
"< c ~ < e e : ; g x r : I t Y R Y x ; i ; d h n , B 6 u H ,.C B "
};
