/* XPM */
static char *xpm_[] = {
/* columns rows colors chars-per-pixel */
"32 32 206 2 ",
"   c #06121C",
".  c #040D22",
"X  c #090E25",
"o  c #051324",
"O  c #0B1324",
"+  c #0C1C26",
"@  c #071229",
"#  c #0C152B",
"$  c #0E1C2C",
"%  c #121C27",
"&  c #10162D",
"*  c #111A2C",
"=  c #0F1630",
"-  c #141D32",
";  c #1B1F39",
":  c #0D222D",
">  c #0C2A2B",
",  c #102926",
"<  c #13232D",
"1  c #152A2D",
"2  c #1A2C2E",
"3  c #103025",
"4  c #14322D",
"5  c #19342F",
"6  c #1F392E",
"7  c #142433",
"8  c #192536",
"9  c #142B33",
"0  c #1A2C35",
"q  c #1C253B",
"w  c #172A38",
"e  c #1D2C3C",
"r  c #0D3131",
"t  c #163334",
"y  c #1B3335",
"u  c #1D3A34",
"i  c #1C333A",
"p  c #1D3B3B",
"a  c #153238",
"s  c #273E2E",
"d  c #212D3D",
"f  c #223C33",
"g  c #22343C",
"h  c #233B3D",
"j  c #293C3D",
"k  c #233036",
"l  c #1F4039",
"z  c #244027",
"x  c #2D4934",
"c  c #25433D",
"v  c #2B443E",
"b  c #2C4A3D",
"n  c #284436",
"m  c #334C35",
"M  c #324D3E",
"N  c #2D5038",
"B  c #34543C",
"V  c #3B523C",
"C  c #405A3D",
"Z  c #49683E",
"A  c #4A6236",
"S  c #1F3140",
"D  c #1E3C40",
"F  c #232F43",
"G  c #282E44",
"H  c #243343",
"J  c #293444",
"K  c #243C43",
"L  c #2A3C44",
"P  c #2A3349",
"I  c #263B48",
"U  c #2B3B4B",
"Y  c #303E47",
"T  c #1D4042",
"R  c #244243",
"E  c #2C4544",
"W  c #274841",
"Q  c #2A4A44",
"!  c #2D434C",
"~  c #2D4C4C",
"^  c #264548",
"/  c #324D45",
"(  c #32444A",
")  c #39464F",
"_  c #334C4B",
"`  c #36464B",
"'  c #2F5146",
"]  c #2F514A",
"[  c #2E584C",
"{  c #345345",
"}  c #3D5B45",
"|  c #34534B",
" . c #39544D",
".. c #35594D",
"X. c #3B5B4C",
"o. c #395546",
"O. c #324452",
"+. c #3A4750",
"@. c #354F54",
"#. c #3A4C52",
"$. c #394B59",
"%. c #355550",
"&. c #3C5453",
"*. c #365851",
"=. c #3C5B52",
"-. c #3F575A",
";. c #3D5D59",
":. c #355258",
">. c #3E644C",
",. c #3F6363",
"<. c #445D42",
"1. c #485F42",
"2. c #424E5A",
"3. c #415453",
"4. c #435C54",
"5. c #44565E",
"6. c #435C5A",
"7. c #495D5C",
"8. c #495E57",
"9. c #44644D",
"0. c #4A6748",
"q. c #566C46",
"w. c #4D7647",
"e. c #5F754A",
"r. c #597848",
"t. c #426153",
"y. c #496354",
"u. c #4B6C56",
"i. c #44635B",
"p. c #4A635C",
"a. c #466A5A",
"s. c #4B6B5B",
"d. c #446F54",
"f. c #536C53",
"g. c #516D5F",
"h. c #4A7057",
"j. c #4D705A",
"k. c #527C5D",
"l. c #597359",
"z. c #6B7D49",
"x. c #657B4D",
"c. c #607A57",
"v. c #657D5C",
"b. c #495C61",
"n. c #465B60",
"m. c #4C6362",
"M. c #4C6A62",
"N. c #48666A",
"B. c #546767",
"V. c #526D65",
"C. c #536C6A",
"Z. c #5A6E6C",
"A. c #53666A",
"S. c #4D7162",
"D. c #537464",
"F. c #597465",
"G. c #5C7A64",
"H. c #54736B",
"J. c #59766C",
"K. c #57786C",
"L. c #5D7C6E",
"P. c #5A6F70",
"I. c #5D7572",
"U. c #5D7C73",
"Y. c #537171",
"T. c #617674",
"R. c #657D7A",
"E. c #637A74",
"W. c #5A854D",
"Q. c #6E8152",
"!. c #6C855A",
"~. c #738556",
"^. c #7B8E5E",
"/. c #5C8462",
"(. c #5C826A",
"). c #5F8573",
"_. c #628D63",
"`. c #638968",
"'. c #788C67",
"]. c #70896B",
"[. c #6E906F",
"{. c #689365",
"}. c #709760",
"|. c #7E936A",
" X c #698076",
".X c #688F72",
"XX c #64837A",
"oX c #6A847C",
"OX c #6B8B7B",
"+X c #658677",
"@X c #748B78",
"#X c #6B9376",
"$X c #74947C",
"%X c #889B63",
"&X c #869C75",
"*X c #8CA166",
"=X c #6F8582",
"-X c #698A81",
";X c #738C84",
":X c #769582",
">X c #779188",
",X c #799982",
"<X c #79A083",
"1X c #829993",
"2X c #86A793",
"3X c #9AB9A9",
/* pixels */
"*X%Xz.z.z.!.}.W.w.w.s.4 y ! ( U P - # @ = w 7 U $.U U + &.p.L.S.",
"A ^.~.Q.e.Z w.W.{.`.K.5 ! L e e q H F q F U U $.S e J b./ 6.' ' ",
"A &X^.~.W.<././._..XM./ p.b.H 8 e F q q & ; F I O.~ ! =.C.*.W Q ",
"z <.0.v.m V N 9.B X.n y E %.5.< P e P - & @ $ F I -.C.N.W l *.i.",
"u.b b n n { { { F.g.` 1 y Q 6.C.! J $.H i H F 7 e L R.D...Q *.,.",
"+XX.Q c Q / | { R.7.j j -.u X.J.b.  L O.U O.i P e * c i.{ a.S.' ",
"C.;.~ W {  .| v 4.F.7.L &.%.~ M.oX0 0 J H I S H * 2.R.9.4.U.+XD.",
"t > p p %.E %. .8.I.;XJ.j ` M.6.#.2 e i i I H O.X d 7.V.i.D.U.c ",
"r l ~ R ! h ~ 6.E E.B.6.` 0 ! #.&.1 K i -.@.U H X X ) 7.E ~ p h ",
"T R D 9 7 $ ` &.1 =X=Xp.j e + y i h R E ;. .1 9 - - < 0 _ ^ t l ",
"a a S S - - d Y & +.oX>Xv < 0 y K | Q ,.M.i.6.p.E.3.` L p R R ;.",
"9 7 S S - ; & G &   o.;X( ` p h ] Q %.Q | v 6.oXF.p.o.m.XX).Y.R ",
"@ F F q F @ X ; X % 2 1X4.h E Q ] [ ~ c *.=.%.i.g.>X3X2X).-X! o ",
"- P F S O.= . % j +.7./ _ f f b ' ' W Q R Q |  .L.F.s.L.XXXX: o ",
"7 F ; H P H O O B.8. Xt.b 4.C C 9.b ' %.*.' *.;.E , y j + U . # ",
"; S = U O.K 5.Y 3.4.j.a.x V '.!.u.x b W | | ' ' -.3.! L 0 H U - ",
"- & - H 5.p ( C.| ..c b 8.c.q.x.q.Z } ' >.a.{ c R &.U.C.-.J w $ ",
"; - - d I.I...Q E c Q { x v.%Xx.v.v.} 9.k.(.s.p y E ' i.C.U q F ",
"G q e e I.oXi.c 5 ;.t.b m l.1.].V B 9.G.(.u.a.c , 9 E E f g g P ",
"q - e 0 1 ..*.Q *.{ m.X.M / x f.B X.h.j.`.j.=._ h K h ;.C.XX5.d ",
"U 7 y m.R.s...X.K.Q =.a.E f v M v { D.d.u.u.s.X.E C.p Q S.H.m.g ",
"O.w 0 #.=.t.a.L.+Xi.&.m.E v o.h / b o.o.s.{ 4.v _ m.6.' ..K.P.1 ",
"7 K i g p.m.3.B.R.+.+.( y ( E / b p.%.v ..C.&.0 e ( 7.B. .=.A.0 ",
": i i w k j < k Y d - 7 j ( y / o.$XC.~ c 4.7.Y g e i 6.m.p.d + ",
": a K t : 0 * H S F = = = w % 3.G.,XOX'  .XX&.7 e H e w #.U < 0 ",
"0 i p p 1 w w e S O.q @ @ . O g F.$X).a.W J.V.E i S H e $ + 7 7 ",
"i i t R y i w w I I U $ - @ $ : C.X.+Xh.=.a.+X/ K H q - * 8 $ 0 ",
"t a t l i p 0 g :.:.O.> S ! w $ h &.+XD.).S.$Xt.3.U $ F @ @ 7 i ",
"p h y y p y R 9 ] ,.~ D ^ D D a h B.{ :X`.,X$X{ +.i d e U 9 : : ",
"4 5 u 5 p y ~ 3 [ [ p T ^ ^ N.N.K : 4 oXg.2X@X8.g H I w L U i 0 ",
"5 6 y.s 6 } 0.9.W.,.4 > : I : H w 7 7 Y j Z.B.k : S U F 0 j #.f ",
"v y.@X1.f } [._._..X;.a $ S U U +.F & % % Y ( d P U F H ) B.oXM."
};
